<?xml version="1.0" encoding="utf-8"?>
<!-- Generator: Adobe Illustrator 18.1.1, SVG Export Plug-In . SVG Version: 6.00 Build 0)  -->
<svg version="1.1" id="Layer_1" xmlns="http://www.w3.org/2000/svg" xmlns:xlink="http://www.w3.org/1999/xlink" x="0px" y="0px"
	 viewBox="0 0 17 23" enable-background="new 0 0 17 23" xml:space="preserve">
<g>
	<defs>
		<rect id="SVGID_1_" x="0" y="0" width="17" height="23"/>
	</defs>
	<clipPath id="SVGID_2_">
		<use xlink:href="#SVGID_1_"  overflow="visible"/>
	</clipPath>
	<path clip-path="url(#SVGID_2_)" fill="#FFFFFF" d="M11,13.6l0,1.7c1.8-1.2,3.7-3,4.6-4l-2.8,0.6C11.2,12.3,11,12.6,11,13.6
		 M4.2,11.9l-2.8-0.6c0.9,0.9,2.8,2.8,4.6,4l0-1.7C5.9,12.6,5.8,12.3,4.2,11.9 M15.6,11.6c0,2-0.5,3.1-2,4.6l-3.5,3.5l-0.4-0.4h0
		c0,0,0,0,0,0l-0.5-0.5c-0.2-0.2-0.5-0.3-0.8-0.3c-0.3,0-0.6,0.1-0.8,0.3l-0.5,0.5c0,0,0,0,0,0h0l-0.4,0.4l-3.5-3.5
		c-1.5-1.5-2-2.6-2-4.6V5.5l2.1-1l4.6,4.6c0.1,0.1,0.3,0.2,0.4,0.2c0.1,0,0.3-0.1,0.4-0.2l4.6-4.6l2.1,1V11.6z M16.6,0
		c-0.2-0.1-0.5,0-0.7,0.1L8.5,7.6L1,0.2C0.9,0,0.6,0,0.4,0.1C0.1,0.2,0,0.4,0,0.6v11c0,2.4,0.6,3.8,2.4,5.6l5.5,5.5
		C8.1,22.9,8.3,23,8.5,23s0.4-0.1,0.6-0.2l5.5-5.5c1.8-1.8,2.4-3.2,2.4-5.6v-11C17,0.4,16.8,0.1,16.6,0"/>
</g>
</svg>
