<?xml version="1.0" encoding="utf-8"?>
<!-- Generator: Adobe Illustrator 18.1.1, SVG Export Plug-In . SVG Version: 6.00 Build 0)  -->
<svg version="1.1" id="Layer_1" xmlns="http://www.w3.org/2000/svg" xmlns:xlink="http://www.w3.org/1999/xlink" x="0px" y="0px"
	 viewBox="0 0 51 56.4" enable-background="new 0 0 51 56.4" xml:space="preserve">
<g>
	<defs>
		<rect id="SVGID_1_" x="0" y="0" width="51" height="56.4"/>
	</defs>
	<clipPath id="SVGID_2_">
		<use xlink:href="#SVGID_1_"  overflow="visible"/>
	</clipPath>
	<path clip-path="url(#SVGID_2_)" fill="#ED703B" d="M35.4,19.9L26.2,29c-0.2,0.2-0.5,0.3-0.8,0.3c-0.3,0-0.6-0.1-0.8-0.3l-9.1-9.1
		l-4.1,2v11.4c2.8,2.9,10.2,10,14.1,10c3.9,0,11.3-7.1,14.1-10V21.9L35.4,19.9z"/>
	<path clip-path="url(#SVGID_2_)" d="M30.4,37.9l0,3.3c3.5-2.3,7.2-6,9.1-7.8l-5.6,1.1C30.7,35.2,30.4,35.8,30.4,37.9 M16.9,34.5
		l-5.6-1.1c1.8,1.9,5.6,5.5,9.1,7.8l0-3.3C20.4,35.8,20.1,35.2,16.9,34.5 M39.5,34c0,4-0.9,6.1-3.9,9.2L28.6,50l-0.7-0.7h0
		c0,0,0,0,0,0L27,48.4c-0.4-0.4-1-0.6-1.6-0.6c-0.6,0-1.1,0.2-1.6,0.6l-0.9,0.9c0,0,0,0,0,0h0L22.2,50l-6.9-6.9
		c-3-3-3.9-5.2-3.9-9.2v-12l4.1-2l9.1,9.1c0.2,0.2,0.5,0.3,0.8,0.3c0.3,0,0.6-0.1,0.8-0.3l9.1-9.1l4.1,2V34z M41.4,11.1
		c-0.5-0.2-1-0.1-1.3,0.3L25.4,26.1L10.7,11.4c-0.3-0.3-0.9-0.5-1.3-0.3c-0.5,0.2-0.7,0.6-0.7,1.1V34c0,4.7,1.2,7.5,4.7,11.1
		L24.3,56c0.3,0.3,0.7,0.5,1.1,0.5c0.4,0,0.8-0.2,1.1-0.5L37.4,45c3.5-3.5,4.7-6.3,4.7-11.1V12.2C42.2,11.7,41.9,11.3,41.4,11.1"/>
	<path clip-path="url(#SVGID_2_)" d="M45.7,29.4c-0.7,0-1.3-0.6-1.3-1.3V13.5c0-5.9-4.8-10.8-10.8-10.8H17.4
		c-5.9,0-10.8,4.8-10.8,10.8V28c0,0.7-0.6,1.3-1.3,1.3C4.6,29.4,4,28.8,4,28V13.5C4,6,10,0,17.4,0h16.1C41,0,47,6,47,13.5V28
		C47,28.8,46.4,29.4,45.7,29.4"/>
	<path clip-path="url(#SVGID_2_)" d="M1.3,26.9c-0.7,0-1.3-0.6-1.3-1.3v-6.3c0-0.7,0.6-1.3,1.3-1.3c0.7,0,1.3,0.6,1.3,1.3v6.3
		C2.7,26.3,2.1,26.9,1.3,26.9"/>
	<path clip-path="url(#SVGID_2_)" d="M49.6,26.9c-0.7,0-1.3-0.6-1.3-1.3v-6.3c0-0.7,0.6-1.3,1.3-1.3c0.7,0,1.3,0.6,1.3,1.3v6.3
		C51,26.3,50.4,26.9,49.6,26.9"/>
</g>
</svg>
